<?xml version="1.0" encoding="utf-8"?>
<!-- Generator: Adobe Illustrator 26.0.3, SVG Export Plug-In . SVG Version: 6.00 Build 0)  -->
<svg version="1.0" id="katman_1" xmlns="http://www.w3.org/2000/svg" xmlns:xlink="http://www.w3.org/1999/xlink" x="0px" y="0px"
	 viewBox="0 0 600 450" style="enable-background:new 0 0 600 450;" xml:space="preserve">
<style type="text/css">
	.st0{fill:#FFFFFF;filter:url(#Adobe_OpacityMaskFilter);}
	.st1{mask:url(#mask0_00000155108117332819969150000002150294896563516824_);}
	.st2{fill:url(#SVGID_1_);}
	.st3{fill:#261D3B;}
</style>
<defs>
	<filter id="Adobe_OpacityMaskFilter" filterUnits="userSpaceOnUse" x="76.3" y="162.8" width="447.1" height="125.1">
		<feColorMatrix  type="matrix" values="1 0 0 0 0  0 1 0 0 0  0 0 1 0 0  0 0 0 1 0"/>
	</filter>
</defs>
<mask maskUnits="userSpaceOnUse" x="76.3" y="162.8" width="447.1" height="125.1" id="mask0_00000155108117332819969150000002150294896563516824_">
	<path class="st0" d="M562.8-37.8H36.5v526.3h526.3V-37.8z"/>
</mask>
<g class="st1">
	
		<linearGradient id="SVGID_1_" gradientUnits="userSpaceOnUse" x1="338.8862" y1="82.2262" x2="457.3873" y2="202.3331" gradientTransform="matrix(1 0 0 -1 -120.9449 379.3622)">
		<stop  offset="0" style="stop-color:#E72763"/>
		<stop  offset="0.28" style="stop-color:#E72763"/>
		<stop  offset="0.78" style="stop-color:#ED6E1C"/>
		<stop  offset="1" style="stop-color:#ED6E1C"/>
	</linearGradient>
	<path class="st2" d="M262.4,209.8c-0.2,0.5-0.7,0.9-1.2,0.9h-50l40.5,29c0.4,0.3,1,0.3,1.4,0c11.2-6.9,21-11.6,41.8-17
		c0,0-32,23.6-52.9,50.1c-0.5,0.6-0.8,1.2-1,1.9l-4.4,13.2l40.5-29c0.4-0.3,1-0.3,1.5,0l40.5,29L303.7,241c-0.2-0.5,0-1.1,0.5-1.4
		l40.5-29h-50c-0.5,0-1-0.3-1.2-0.9l-15.5-46.9L262.4,209.8z"/>
	<path class="st3" d="M523.4,220.5h-31.5v-31.1h-16.7v31.1h-31.5v16h31.5v31.1h16.7v-31.1h31.5V220.5z"/>
	<path class="st3" d="M387.2,198.5c8.2,0,13.4,4.2,13.4,11.1c0,7.2-5.2,12.4-13.4,12.4h-13.1v-23.5H387.2z M397.5,238.4
		c14-1.8,25.7-13.7,25.7-28.9c0-19.7-13.6-30.5-35.5-30.5h-35.8v99h22.2v-39.2l26.6,39.2h25.8L397.5,238.4z M219.4,179.1h-66.2v20
		h21.7v79h22.7v-79h21.7L219.4,179.1L219.4,179.1z M111.4,215.4c-6.4-2.9-8.8-6-8.8-10c0-4.7,4.1-8.6,10.1-8.4
		c5.6,0.2,9.6,3.1,12.7,10l19.1-8.2c-5.2-13.2-15.9-21-33-21c-18.1,0-31.5,11.8-31.5,27.6c0,10.8,5.2,19.7,18.6,26.3l13.4,6.6
		c7.5,3.7,11.1,6.5,11.1,11.9c0,5.8-4.9,10-11.1,10c-6.7,0-12.7-3.7-15.5-12.1l-20.3,5.8c4.6,16.3,18.1,25.8,35.8,25.8
		c19.1,0,33.8-12.1,33.8-29.5c0-13.4-7.2-22.4-21.7-29L111.4,215.4z"/>
</g>
</svg>
